<svg width="1140" height="200" viewBox="0 0 1140 200" fill="none"
  xmlns="http://www.w3.org/2000/svg">
  <g opacity="0.13">
    <path d="M514.945 909.758C514.945 909.758 216.999 729.532 280.992 523.285C345.43 317.835 442.698 175.217 765.553 240.026C1096.97 306.557 1243.95 489.785 1369.37 436.172C1484.63 386.907 1517.35 481.99 1516.55 489.973" stroke="white" stroke-miterlimit="10"/>
    <path d="M475.112 918.941C475.112 918.941 147.958 723.015 221.671 499.068C295.747 275.837 405.138 122.458 758.854 198.975C1120.27 277.145 1269.84 469.548 1402.07 405.214C1526.31 344.681 1561.2 449.609 1560.47 456.939" stroke="white" stroke-miterlimit="10"/>
    <path d="M435.116 928.126C435.116 928.126 78.7731 716.482 162.151 474.849C245.864 233.855 367.402 69.6612 751.959 157.904C1143.39 247.715 1295.29 449.283 1434.61 374.239C1567.76 302.503 1604.98 417.24 1604.31 423.898" stroke="white" stroke-miterlimit="10"/>
    <path d="M395.299 937.329C395.299 937.329 9.64215 709.956 102.706 450.601C196.055 191.844 329.758 16.8374 745.137 116.822C1166.61 218.257 1320.6 429.095 1467.18 343.268C1609.01 260.215 1648.74 384.868 1648.13 390.855" stroke="white" stroke-miterlimit="10"/>
    <path d="M355.286 946.512C355.286 946.512 -59.4704 703.432 43.2606 426.372C146.278 149.892 292.134 -35.984 738.315 75.741C1189.84 188.802 1345.76 408.949 1499.76 312.297C1650.14 217.914 1692.44 352.564 1691.91 357.808" stroke="white" stroke-miterlimit="10"/>
    <path d="M315.381 955.706C315.381 955.706 -128.582 696.907 -16.1665 402.144C96.4387 107.842 254.529 -88.822 731.512 34.6609C1213.11 159.35 1370.82 388.846 1532.37 281.33C1691.2 175.605 1736.31 320.113 1735.84 324.776" stroke="white" stroke-miterlimit="10"/>
    <path d="M275.456 964.898C275.456 964.898 -197.694 690.364 -75.6135 377.915C46.646 65.8515 216.905 -141.661 724.67 -6.40389C1236.36 129.879 1395.74 368.784 1564.94 250.303C1732.14 133.284 1780.07 287.706 1779.67 291.697" stroke="white" stroke-miterlimit="10"/>
    <path d="M235.55 974.092C235.55 974.092 -266.807 683.839 -135.06 353.685C-3.16207 23.8406 179.318 -194.497 717.848 -47.4859C1259.61 100.425 1420.6 348.77 1597.58 219.375C1773.06 91.0355 1823.89 255.433 1823.57 258.698" stroke="white" stroke-miterlimit="10"/>
    <path d="M195.625 983.284C195.625 983.284 -335.92 677.314 -194.498 329.383C-53.0772 -18.5474 141.722 -247.426 711.034 -88.6401C1282.9 70.8662 1445.4 328.715 1630.11 188.326C1813.85 48.6994 1867.63 222.912 1867.37 225.507" stroke="white" stroke-miterlimit="10"/>
    <path d="M155.72 992.478C155.72 992.478 -405.032 670.79 -253.949 305.208C-102.867 -60.3734 104.131 -300.226 704.205 -129.65C1306.17 41.4502 1470.12 308.815 1662.7 157.411C1854.63 6.48985 1911.39 190.595 1911.19 192.591" stroke="white" stroke-miterlimit="10"/>
    <path d="M115.796 1001.67C115.796 1001.67 -474.152 664.338 -313.397 280.997C-152.642 -102.344 66.7915 -353.898 697.378 -170.677C1329.68 11.1808 1494.82 288.932 1695.22 126.453C1895.33 -35.7263 1955.13 158.222 1954.99 159.565" stroke="white" stroke-miterlimit="10"/>
    <path d="M75.8732 1010.84C75.8732 1010.84 -543.252 657.686 -372.844 256.767C-202.435 -144.151 29.1097 -406.341 690.558 -211.777C1352.8 -17.8832 1519.46 269.043 1727.87 95.4887C1936.27 -78.0659 1998.97 125.86 1998.91 126.531" stroke="white" stroke-miterlimit="10"/>
    <path d="M35.9667 1020.04C35.9667 1020.04 -612.376 651.27 -432.29 232.538C-252.204 -186.194 -8.58999 -458.785 683.735 -252.859C1376.06 -46.9323 1544.09 249.189 1760.44 64.5175C1976.8 -120.154 2042.75 93.4903 2042.75 93.4903" stroke="white" stroke-miterlimit="10"/>
  </g>
</svg>
